<?xml version="1.0" encoding="utf-8"?>
<!-- Generator: Adobe Illustrator 26.3.1, SVG Export Plug-In . SVG Version: 6.00 Build 0)  -->
<svg version="1.1" id="Layer_1" xmlns="http://www.w3.org/2000/svg" xmlns:xlink="http://www.w3.org/1999/xlink" x="0px" y="0px"
	viewBox="0 0 139 32" style="enable-background:new 0 0 1000 1000;" xml:space="preserve">
<style type="text/css">
	.st0{fill:none;}
	.st1{fill:#FF1D25;}
	.st2{fill:#FE9E04;}
	.st3{fill:#49C9EE;}
	.st4{fill:#F73D5C;}
	.st5{fill:#2A8AEA;}
</style>
<g>
	<path class="st0" d="M346.3,479.3"/>
	<path class="st1" d="M346.3,479.3L346.3,479.3z"/>
	<g>
		<path class="st0" d="M382.3,533.8c-4.9,3.1-10.2,5.5-15.8,7.3V521h9.3L382.3,533.8z"/>
		<path class="st0" d="M413.3,478.2c0,17.3-6.8,33.1-17.8,44.8c-2.4,2.6-5,4.9-7.8,7.1l-5.2-10.4c2.1-0.8,4-1.9,5.7-3.3
			c1.4-1.2,2.7-2.8,3.9-4.7s1.8-4.4,1.8-7.4c0-2.2-0.4-4.3-1.3-6.3c-0.9-2-2-3.7-3.5-5.2c-1.5-1.5-3.2-2.6-5.2-3.5
			c-2-0.9-4-1.3-6.3-1.3h-26.1v8h28c2.6,0,4.8,0.8,6.6,2.4s2.6,3.6,2.6,6.1s-0.9,4.5-2.6,6.1s-3.9,2.4-6.6,2.4h-21v30.1
			c-4,0.7-8,1.1-12.2,1.1c-18.5,0-35.2-7.4-47.4-19.3c-0.1-0.1-0.3-0.3-0.4-0.4c-11.9-11.9-19.2-28.2-19.2-46.3c0-36.5,30-66,67-66
			c17.8,0,34,6.9,46,18.1c3.9,3.7,7.4,7.8,10.3,12.3c0,0,0.1,0.1,0.1,0.1C409.4,452.9,413.3,465.1,413.3,478.2z"/>
		<g>
			<path class="st2" d="M297,525.9l-22.1,21.7c-12,11.8-31.4,11.7-43.2-0.4l-2.4-2.4c-11.9-12-11.7-31.4,0.4-43.3l56-55
				C272,472,275.8,504.3,297,525.9z"/>
			<path class="st3" d="M341.9,479.8l50-49.2l-54.5,54.7C338.6,483.4,340.1,481.5,341.9,479.8z"/>
			<path class="st3" d="M457.2,457l-51.4,50.5c12.3-25.3,7.9-56.7-13.2-77.6l19.3-19c12-11.8,31.4-11.7,43.2,0.4l2.4,2.4
				C469.5,425.8,469.3,445.1,457.2,457z"/>
		</g>
		<g>
			<path class="st4" d="M297.4,430.6c-4.8,4.8-8.8,10.2-11.8,15.9c-13.6,25.5-9.8,57.7,11.4,79.3c0.2,0.2,0.4,0.4,0.6,0.6l95.7-96.1
				C366.7,404,323.8,404.1,297.4,430.6z"/>
			<polygon class="st5" points="392.7,429.9 391.9,430.7 392.7,429.9 			"/>
			<path class="st5" d="M402.7,442.6c0,0,0-0.1-0.1-0.1c-2.8-4.5-6.1-8.7-10-12.6l-0.4,0.3l-0.4,0.4l-54.5,54.7l-38.9,39.1l-1.5,1.5
				c16.7,16.7,40,22.8,61.5,18.4c2.7-0.5,5.4-1.3,8-2.1c5.6-1.9,11-4.5,16-7.9c1.8-1.2,3.5-2.5,5.2-3.9c1.8-1.5,3.5-3,5.1-4.7
				c0.9-0.9,1.7-1.8,2.6-2.7c4.3-4.8,7.7-10,10.4-15.5C415.8,486.9,414.8,462.3,402.7,442.6z M382.3,533.8l-6.5-12.8h-9.3v20.1
				c-2.6,0.8-5.3,1.5-8,2V513h21c2.6,0,4.8-0.8,6.6-2.4s2.6-3.6,2.6-6.1s-0.9-4.5-2.6-6.1s-3.9-2.4-6.6-2.4h-28v-8h26.1
				c2.2,0,4.3,0.4,6.3,1.3c2,0.9,3.8,2,5.2,3.5c1.5,1.5,2.6,3.2,3.5,5.2c0.9,2,1.3,4,1.3,6.3c0,3-0.6,5.5-1.8,7.4s-2.5,3.5-3.9,4.7
				c-1.7,1.4-3.6,2.5-5.7,3.3l5.2,10.4C385.9,531.4,384.1,532.7,382.3,533.8z"/>
		</g>
	</g>
	<path d="M771.5,488v39.4c0,1.5-0.3,3-0.9,4.4c-0.5,1.3-1.3,2.5-2.4,3.5c-1,1-2.1,1.8-3.5,2.4c-1.3,0.5-2.7,0.8-4.2,0.8
		s-3-0.3-4.3-0.8c-1.3-0.6-2.5-1.4-3.5-2.4c-1-1-1.8-2.2-2.4-3.5c-0.5-1.4-0.8-2.8-0.8-4.4h0V488h-15v8h7v31.4
		c0,2.7,0.5,5.2,1.4,7.5c1,2.3,2.3,4.3,4,6c1.7,1.7,3.7,3,6,4c2.3,0.9,4.8,1.4,7.5,1.4c2.7,0,5.2-0.5,7.5-1.4c2.3-1,4.3-2.3,6-4
		c1.7-1.7,3-3.7,4-6c1-2.3,1.5-4.8,1.5-7.5V488H771.5z M724.9,488h-8.8l-12,25h-7.6v-25h-14v8h6v49h8v-24h7.5l11.8,24h9.2
		l-14.2-28.5L724.9,488z M654.8,488h-8.1l-17.9,57h9l4.2-13h17.6l4.2,13h9L654.8,488z M643.4,524l7.4-23.4l7.4,23.4H643.4z
		 M604.5,519.8c2.1-0.8,4-1.9,5.7-3.3c1.4-1.2,2.7-2.8,3.9-4.7s1.8-4.4,1.8-7.4c0-2.2-0.4-4.3-1.3-6.3c-0.9-2-2-3.7-3.5-5.2
		c-1.5-1.5-3.2-2.6-5.2-3.5c-2-0.9-4-1.3-6.3-1.3h-26.1v8h28c2.6,0,4.8,0.8,6.6,2.4s2.6,3.6,2.6,6.1s-0.9,4.5-2.6,6.1
		s-3.9,2.4-6.6,2.4h-21v32h7v-24h9.1l11.9,24h8.5L604.5,519.8z M549.5,488v39.4c0,1.5-0.3,3-0.9,4.4c-0.5,1.3-1.3,2.5-2.4,3.5
		c-1,1-2.1,1.8-3.5,2.4c-1.3,0.5-2.7,0.8-4.2,0.8s-3-0.3-4.3-0.8c-1.3-0.6-2.5-1.4-3.5-2.4c-1-1-1.8-2.2-2.4-3.5
		c-0.5-1.4-0.8-2.8-0.8-4.4h0V488h-14v8h7v31.4c0,2.7,0.5,5.2,1.4,7.5c1,2.3,2.3,4.3,3.9,6c1.7,1.7,3.6,3,5.9,4
		c2.2,0.9,4.7,1.4,7.3,1.4s5.1-0.5,7.3-1.4c2.2-1,4.2-2.3,5.9-4c1.7-1.7,3-3.7,3.9-6c1-2.3,1.5-4.8,1.5-7.5V488H549.5z M503.5,488
		h-9.5l-12,25h-7.6v-25h-14v8h7v49h7v-24h7.5l11.8,24h9.8l-14.2-28.5L503.5,488z M433.5,488h-8.1l-17.9,57h9l4.2-13h17.6l4.2,13h9
		L433.5,488z M422,524l7.4-23.4l7.4,23.4H422z"/>
	<path d="M393.8,504.3c0,3-0.6,5.5-1.8,7.4s-2.5,3.5-3.9,4.7c-1.7,1.4-3.6,2.5-5.7,3.3l5.2,10.4c-1.7,1.3-3.5,2.6-5.3,3.7l-6.5-12.8
		h-9.3v20.1c-2.6,0.8-5.3,1.5-8,2V513h21c2.6,0,4.8-0.8,6.6-2.4s2.6-3.6,2.6-6.1s-0.9-4.5-2.6-6.1s-3.9-2.4-6.6-2.4h-28v-8h26.1
		c2.2,0,4.3,0.4,6.3,1.3c2,0.9,3.8,2,5.2,3.5c1.5,1.5,2.6,3.2,3.5,5.2C393.4,500,393.8,502,393.8,504.3z"/>
	<path d="M366.5,541.1v3.9h-8v-1.9C361.2,542.6,363.9,541.9,366.5,541.1z"/>
	<path d="M395.1,545H388l-5.5-10.7l-0.2-0.4c1.8-1.2,3.6-2.4,5.3-3.7l0.1,0.3L395.1,545z"/>
</g>
</svg>
