<svg width="560" height="155" viewBox="0 0 560 155" fill="none" xmlns="http://www.w3.org/2000/svg">
<path d="M76.9995 123.9L54.8994 145.6C42.8994 157.4 23.4994 157.3 11.6994 145.2L9.29946 142.8C-2.60054 130.8 -2.40055 111.4 9.69945 99.5L65.6995 44.5C51.9995 70 55.7994 102.3 76.9995 123.9Z" fill="#FE9E04"/>
<path d="M121.9 77.8001L171.9 28.6001L117.4 83.3001C118.6 81.4001 120.1 79.5001 121.9 77.8001Z" fill="#49C9EE"/>
<path d="M237.2 55L185.8 105.5C198.1 80.2 193.7 48.8 172.6 27.9L191.9 8.89996C203.9 -2.90004 223.3 -2.80005 235.1 9.29995L237.5 11.7C249.5 23.8 249.3 43.1 237.2 55Z" fill="#49C9EE"/>
<path d="M77.3994 28.6C72.5994 33.4 68.5994 38.7999 65.5994 44.4999C51.9994 69.9999 55.7994 102.2 76.9994 123.8C77.1994 124 77.3994 124.2 77.5994 124.4L173.299 28.2999C146.699 1.99993 103.799 2.09995 77.3994 28.6Z" fill="#F73D5C"/>
<path d="M172.698 27.8999L171.898 28.6999L172.698 27.8999Z" fill="#2A8AEA"/>
<path d="M182.698 40.5999C182.698 40.5999 182.698 40.4999 182.598 40.4999C179.798 35.9999 176.498 31.7999 172.598 27.8999L172.198 28.1999L171.798 28.5999L117.298 83.2999L78.3984 122.4L76.8984 123.9C93.5984 140.6 116.898 146.7 138.398 142.3C141.098 141.8 143.798 141 146.398 140.2C151.998 138.3 157.398 135.7 162.398 132.3C164.198 131.1 165.898 129.8 167.598 128.4C169.398 126.9 171.098 125.4 172.698 123.7C173.598 122.8 174.398 121.9 175.298 121C179.598 116.2 182.998 111 185.698 105.5C195.798 84.8999 194.798 60.2999 182.698 40.5999ZM162.298 131.8L155.798 119H146.498V139.1C143.898 139.9 141.198 140.6 138.498 141.1V111H159.498C162.098 111 164.298 110.2 166.098 108.6C167.898 107 168.698 105 168.698 102.5C168.698 99.9999 167.798 97.9999 166.098 96.3999C164.398 94.7999 162.198 93.9999 159.498 93.9999H131.498V85.9999H157.598C159.798 85.9999 161.898 86.3999 163.898 87.2999C165.898 88.1999 167.698 89.2999 169.098 90.7999C170.598 92.2999 171.698 93.9999 172.598 95.9999C173.498 97.9999 173.898 99.9999 173.898 102.3C173.898 105.3 173.298 107.8 172.098 109.7C170.898 111.6 169.598 113.2 168.198 114.4C166.498 115.8 164.598 116.9 162.498 117.7L167.698 128.1C165.898 129.4 164.098 130.7 162.298 131.8Z" fill="#2A8AEA"/>
<path d="M551.5 86V125.4C551.5 126.9 551.2 128.4 550.6 129.8C550.1 131.1 549.3 132.3 548.2 133.3C547.2 134.3 546.1 135.1 544.7 135.7C543.4 136.2 542 136.5 540.5 136.5C539 136.5 537.5 136.2 536.2 135.7C534.9 135.1 533.7 134.3 532.7 133.3C531.7 132.3 530.9 131.1 530.3 129.8C529.8 128.4 529.5 127 529.5 125.4V86H514.5V94H521.5V125.4C521.5 128.1 522 130.6 522.9 132.9C523.9 135.2 525.2 137.2 526.9 138.9C528.6 140.6 530.6 141.9 532.9 142.9C535.2 143.8 537.7 144.3 540.4 144.3C543.1 144.3 545.6 143.8 547.9 142.9C550.2 141.9 552.2 140.6 553.9 138.9C555.6 137.2 556.9 135.2 557.9 132.9C558.9 130.6 559.4 128.1 559.4 125.4V86H551.5ZM504.9 86H496.1L484.1 111H476.5V86H462.5V94H468.5V143H476.5V119H484L495.8 143H505L490.8 114.5L504.9 86ZM434.8 86H426.7L408.8 143H417.8L422 130H439.6L443.8 143H452.8L434.8 86ZM423.4 122L430.8 98.6L438.2 122H423.4ZM384.5 117.8C386.6 117 388.5 115.9 390.2 114.5C391.6 113.3 392.9 111.7 394.1 109.8C395.3 107.9 395.9 105.4 395.9 102.4C395.9 100.2 395.5 98.1 394.6 96.1C393.7 94.1 392.6 92.4 391.1 90.9C389.6 89.4 387.9 88.3 385.9 87.4C383.9 86.5 381.9 86.1 379.6 86.1H353.5V94.1H381.5C384.1 94.1 386.3 94.9 388.1 96.5C389.9 98.1 390.7 100.1 390.7 102.6C390.7 105.1 389.8 107.1 388.1 108.7C386.4 110.3 384.2 111.1 381.5 111.1H360.5V143.1H367.5V119.1H376.6L388.5 143.1H397L384.5 117.8ZM329.5 86V125.4C329.5 126.9 329.2 128.4 328.6 129.8C328.1 131.1 327.3 132.3 326.2 133.3C325.2 134.3 324.1 135.1 322.7 135.7C321.4 136.2 320 136.5 318.5 136.5C317 136.5 315.5 136.2 314.2 135.7C312.9 135.1 311.7 134.3 310.7 133.3C309.7 132.3 308.9 131.1 308.3 129.8C307.8 128.4 307.5 127 307.5 125.4V86H293.5V94H300.5V125.4C300.5 128.1 301 130.6 301.9 132.9C302.9 135.2 304.2 137.2 305.8 138.9C307.5 140.6 309.4 141.9 311.7 142.9C313.9 143.8 316.4 144.3 319 144.3C321.6 144.3 324.1 143.8 326.3 142.9C328.5 141.9 330.5 140.6 332.2 138.9C333.9 137.2 335.2 135.2 336.1 132.9C337.1 130.6 337.6 128.1 337.6 125.4V86H329.5ZM283.5 86H274L262 111H254.4V86H240.4V94H247.4V143H254.4V119H261.9L273.7 143H283.5L269.3 114.5L283.5 86ZM213.5 86H205.4L187.5 143H196.5L200.7 130H218.3L222.5 143H231.5L213.5 86ZM202 122L209.4 98.6L216.8 122H202Z" fill="white"/>
<path d="M173.8 102.3C173.8 105.3 173.2 107.8 172 109.7C170.8 111.6 169.5 113.2 168.1 114.4C166.4 115.8 164.5 116.9 162.4 117.7L167.6 128.1C165.9 129.4 164.1 130.7 162.3 131.8L155.8 119H146.5V139.1C143.9 139.9 141.2 140.6 138.5 141.1V111H159.5C162.1 111 164.3 110.2 166.1 108.6C167.9 107 168.7 105 168.7 102.5C168.7 100 167.8 98 166.1 96.4C164.4 94.8 162.2 94 159.5 94H131.5V86H157.6C159.8 86 161.9 86.4 163.9 87.3C165.9 88.2 167.7 89.3 169.1 90.8C170.6 92.3 171.7 94 172.6 96C173.4 98 173.8 100 173.8 102.3Z" fill="white"/>
<path d="M146.5 139.1V143H138.5V141.1C141.2 140.6 143.9 139.9 146.5 139.1Z" fill="white"/>
<path d="M175.099 143H167.999L162.499 132.3L162.299 131.9C164.099 130.7 165.899 129.5 167.599 128.2L167.699 128.5L175.099 143Z" fill="white"/>
</svg>
